#N canvas 569 249 1621 783 12;
#X obj 135 165 +~;
#X obj 153 80 delwrite~ feedback 1000;
#X obj 135 286 output~;
#X obj 153 133 *~ 0.7;
#X obj 135 194 *~ 0.7;
#X obj 135 253 +~;
#X obj 189 229 *~ 0.7;
#X text 321 193 x[n-m];
#X text 236 229 feedforward coefficient;
#X text 12 192 blend coefficient;
#X text 201 132 feedback coefficient;
#X text 98 254 y[n];
#X obj 457 40 osc~ \$1;
#X text 455 19 LFO:;
#X text 68 37 x[n];
#X obj 189 193 delread4~ feedback;
#X obj 457 74 expr~ ($v1 + 1) * 0.5;
#X obj 189 165 LFO-1 0.2 1000;
#X obj 457 105 *~ \$2;
#X obj 153 105 delread4~ feedback 100;
#X text 315 105 x[n-D/2];
#X text 516 41 \$1 = LFO frequency;
#X text 621 74 making it unipolar;
#X text 19 133 (1 - blend);
#X obj 103 133 *~ 0.3;
#X text 458 218 controls amount of original signal;
#X text 459 202 (1 - blend);
#X obj 103 37 osc~ 440;
#X text 102 15 Flanger:;
#X text 499 105 \$2 = Delay line length (D);
#X connect 0 0 4 0;
#X connect 3 0 0 1;
#X connect 4 0 5 0;
#X connect 5 0 2 0;
#X connect 6 0 5 1;
#X connect 12 0 16 0;
#X connect 15 0 6 0;
#X connect 16 0 18 0;
#X connect 17 0 15 0;
#X connect 19 0 3 0;
#X connect 24 0 0 0;
#X connect 27 0 1 0;
#X connect 27 0 24 0;
